<?xml version="1.0" standalone="no"?>
<!DOCTYPE svg PUBLIC "-//W3C//DTD SVG 20010904//EN"
 "http://www.w3.org/TR/2001/REC-SVG-20010904/DTD/svg10.dtd">
<svg version="1.0" xmlns="http://www.w3.org/2000/svg"
 width="200.000000pt" height="200.000000pt" viewBox="0 0 200.000000 200.000000"
 preserveAspectRatio="xMidYMid meet">
<metadata>
Created by potrace 1.15, written by Peter Selinger 2001-2017
</metadata>
<g transform="translate(0.000000,200.000000) scale(0.100000,-0.100000)"
fill="#000000" stroke="none">
<path d="M580 1195 l0 -126 93 3 92 3 0 30 c0 29 -2 30 -52 33 -61 4 -71 19
-15 24 34 3 37 6 40 36 3 31 2 32 -37 32 -60 0 -50 18 12 22 50 3 52 4 52 33
l0 30 -92 3 -93 3 0 -126z"/>
<path d="M930 1194 l0 -125 43 3 42 3 5 50 c3 31 8 45 13 38 11 -18 32 -16 51
3 15 14 16 10 16 -40 l0 -56 40 0 40 0 0 125 0 125 -43 0 c-40 0 -45 -3 -61
-37 l-18 -38 -19 38 c-18 34 -23 37 -64 37 l-45 0 0 -126z"/>
<path d="M1239 1263 c-13 -36 -22 -82 -23 -123 l-1 -65 43 -3 c41 -3 42 -2 42
27 0 26 4 31 25 31 21 0 25 -5 25 -30 0 -28 2 -30 40 -30 l40 0 0 69 c0 47 -7
87 -21 125 l-22 56 -63 0 -63 0 -22 -57z"/>
<path d="M1470 1195 l0 -125 40 0 40 0 0 40 c0 36 3 40 25 40 23 0 25 -4 25
-40 l0 -40 45 0 45 0 0 54 c0 31 -6 60 -13 68 -7 7 -13 33 -13 56 1 61 -18 72
-116 72 l-78 0 0 -125z"/>
<path d="M1694 1306 c-12 -31 1 -51 34 -54 l32 -3 0 -90 0 -89 40 0 40 0 0 90
0 90 30 0 c28 0 30 3 30 35 l0 35 -100 0 c-78 0 -102 -3 -106 -14z"/>
<path d="M269 1255 c-34 -18 -56 -54 -61 -95 -5 -50 18 -48 40 4 22 49 69 81
107 72 32 -8 72 -51 79 -86 8 -44 36 -40 36 6 0 29 -8 44 -39 75 -34 35 -44
39 -87 39 -27 -1 -61 -7 -75 -15z"/>
<path d="M107 973 c-4 -71 -7 -165 -7 -210 l0 -83 241 0 240 0 -6 198 c-4 108
-8 203 -10 210 -3 9 -58 12 -228 12 l-224 0 -6 -127z m426 -30 c4 -71 7 -152
7 -180 l0 -53 -203 0 -204 0 4 128 c2 70 6 151 9 180 l5 52 188 0 188 0 6
-127z"/>
</g>
</svg>
